<?xml version="1.0" standalone="no"?>
<!DOCTYPE svg PUBLIC "-//W3C//DTD SVG 20010904//EN"
 "http://www.w3.org/TR/2001/REC-SVG-20010904/DTD/svg10.dtd">
<svg version="1.0" xmlns="http://www.w3.org/2000/svg"
 width="398.000000pt" height="398.000000pt" viewBox="0 0 398.000000 398.000000"
 preserveAspectRatio="xMidYMid meet">
<metadata>
Created by potrace 1.11, written by Peter Selinger 2001-2013
</metadata>
<g transform="translate(0.000000,398.000000) scale(0.100000,-0.100000)"
fill="#000000" stroke="none">
<path d="M949 2796 c-2 -2 -69 -7 -149 -10 -80 -4 -174 -9 -210 -11 -36 -3
-102 -7 -147 -10 -90 -6 -133 -18 -133 -37 0 -7 9 -26 19 -42 l19 -29 -33 -61
c-19 -33 -52 -94 -73 -135 -29 -54 -48 -77 -70 -87 -42 -17 -63 -54 -68 -116
-7 -110 -14 -184 -18 -218 -3 -22 -2 -30 3 -20 11 18 20 83 26 187 8 114 16
131 77 154 18 7 38 33 65 82 21 40 40 77 42 82 2 6 7 12 10 15 13 11 61 109
61 125 0 9 -7 23 -15 31 -21 22 -19 34 8 35 12 1 38 3 57 5 243 18 1203 26
1425 11 66 -5 152 -10 190 -13 39 -2 81 -6 95 -9 14 -3 36 -7 50 -9 95 -14
293 -81 470 -159 132 -58 397 -192 421 -213 15 -13 100 -35 194 -49 89 -13
212 -35 243 -44 18 -5 35 -10 37 -10 18 1 84 -18 173 -48 89 -31 105 -40 119
-67 29 -56 40 -122 40 -235 0 -61 3 -115 7 -118 3 -4 6 18 7 48 0 30 2 70 3
89 1 33 -8 116 -18 167 -6 28 -32 77 -48 91 -38 31 -293 108 -458 138 -41 8
-55 10 -134 25 -33 6 -68 11 -79 12 -11 1 -56 23 -101 49 -70 41 -432 225
-491 249 -180 75 -345 123 -495 146 -39 6 -1116 14 -1121 9z"/>
<path d="M1007 2734 c-1 -1 -87 -5 -191 -8 -103 -4 -193 -9 -200 -11 -6 -2
-35 -7 -64 -9 -125 -13 -176 -41 -153 -84 26 -49 253 -238 336 -281 46 -23 19
-22 810 -46 116 -4 251 -8 300 -10 334 -14 592 -20 640 -15 16 1 14 3 -8 10
-24 7 -152 14 -442 25 -190 6 -404 16 -450 20 -27 2 -120 7 -205 11 -85 3
-175 8 -200 9 -25 2 -112 6 -195 10 -82 4 -157 9 -165 10 -8 2 -22 4 -31 4
-18 1 -104 57 -159 104 -78 67 -169 157 -162 160 15 9 97 19 252 32 248 20
1282 29 1415 12 192 -24 490 -147 713 -294 53 -34 102 -63 109 -63 8 0 16 -6
19 -14 3 -8 13 -17 21 -20 14 -6 14 -4 2 10 -14 17 -114 94 -122 94 -3 0 -31
17 -63 39 -217 142 -505 261 -674 277 -36 3 -76 7 -90 10 -59 9 -1032 26
-1043 18z"/>
<path d="M799 2221 c-3 -28 -14 -60 -59 -174 -29 -73 -61 -149 -71 -170 -11
-21 -19 -39 -19 -40 0 -2 17 -2 37 -2 32 2 37 5 38 26 1 13 5 33 9 44 4 11 21
54 37 95 16 41 29 81 29 88 0 6 5 12 11 12 5 0 8 3 5 8 -2 4 1 18 8 30 12 22
17 12 69 -127 32 -82 56 -155 55 -163 -2 -8 10 -13 37 -13 22 -1 43 0 47 2 3
2 -4 22 -17 46 -19 34 -66 146 -70 167 -1 6 -41 93 -62 138 -9 17 -21 32 -27
33 -6 0 -21 2 -33 3 -13 2 -23 0 -24 -3z"/>
<path d="M1259 2220 c0 -3 -1 -84 -1 -180 0 -103 -4 -180 -10 -187 -13 -16
-16 -15 102 -17 104 -3 130 4 130 35 0 18 -4 20 -29 14 -33 -7 -76 -8 -106 -2
-19 4 -20 12 -19 158 0 85 3 161 7 169 6 12 -1 15 -33 15 -22 1 -40 -2 -41 -5z"/>
<path d="M1727 2190 c11 -63 7 -332 -7 -340 -17 -10 6 -18 50 -15 24 2 34 6
31 16 -7 22 -4 332 2 354 6 18 2 20 -38 20 l-45 0 7 -35z"/>
<path d="M2059 2206 c-10 -10 -16 -22 -14 -26 2 -4 39 -6 82 -5 43 1 82 0 86
-2 4 -3 -3 -19 -16 -36 -13 -18 -32 -48 -42 -67 -10 -19 -21 -37 -24 -40 -10
-8 -111 -178 -111 -187 0 -14 295 -10 309 4 6 7 9 13 6 13 -3 0 -1 10 6 21 10
20 9 21 -12 14 -33 -12 -198 -15 -205 -4 -3 5 4 21 14 36 48 69 102 153 102
158 0 8 43 69 55 77 7 5 7 8 0 8 -5 0 -5 4 2 8 6 4 13 16 15 26 3 18 -5 19
-116 20 -106 1 -122 -1 -137 -18z"/>
<path d="M2690 2205 c0 -20 -108 -301 -130 -338 -13 -22 -11 -26 19 -32 35 -6
47 3 45 35 -1 17 1 30 5 30 4 0 7 8 8 18 1 9 10 35 19 57 21 47 20 45 29 71 3
12 17 43 30 70 l22 49 8 -30 c4 -16 13 -43 20 -60 36 -81 83 -218 79 -229 -3
-9 7 -12 36 -10 51 3 55 6 37 36 -8 12 -43 93 -77 178 -35 85 -67 159 -72 165
-4 5 -24 10 -43 10 -29 1 -35 -2 -35 -20z"/>
<path d="M66 1985 c-3 -9 -6 -22 -5 -28 0 -7 5 -1 10 12 5 13 8 26 5 28 -2 2
-6 -3 -10 -12z"/>
<path d="M3872 1740 c0 -14 2 -19 5 -12 2 6 2 18 0 25 -3 6 -5 1 -5 -13z"/>
<path d="M910 1685 c0 -35 4 -45 16 -45 11 0 15 6 11 20 -3 13 0 20 9 20 7 0
18 -9 24 -20 6 -11 18 -20 27 -20 15 0 15 2 0 18 -12 14 -14 21 -6 29 22 22 2
43 -41 43 l-40 0 0 -45z m63 20 c1 -5 -6 -11 -15 -13 -11 -2 -18 3 -18 13 0
17 30 18 33 0z"/>
<path d="M1020 1685 l0 -45 48 2 c36 1 39 2 15 5 -40 5 -44 30 -5 36 l27 4
-27 2 c-17 0 -28 7 -28 15 0 8 12 17 28 19 19 3 14 4 -15 6 l-43 1 0 -45z"/>
<path d="M1120 1687 c0 -32 4 -44 15 -44 9 0 15 10 15 25 l0 25 23 -26 c33
-40 47 -34 47 18 0 33 -4 45 -15 45 -10 0 -15 -10 -15 -27 l-1 -28 -20 28
c-31 41 -49 35 -49 -16z"/>
<path d="M1248 1723 c18 -4 22 -11 22 -44 0 -28 4 -39 15 -39 11 0 15 11 15
39 0 29 5 41 18 44 9 3 -8 5 -38 4 -30 0 -45 -2 -32 -4z"/>
<path d="M1402 1685 c-18 -37 -19 -45 -7 -45 8 0 15 5 15 10 0 6 11 10 25 10
14 0 25 -4 25 -10 0 -5 7 -10 15 -10 12 0 11 8 -7 45 -12 25 -27 45 -33 45 -6
0 -21 -20 -33 -45z m42 0 c3 -9 0 -15 -9 -15 -9 0 -12 6 -9 15 4 8 7 15 9 15
2 0 5 -7 9 -15z"/>
<path d="M1562 1718 c-7 -7 -12 -21 -12 -33 0 -12 5 -26 12 -33 17 -17 63 -15
78 3 10 12 10 15 -2 15 -8 0 -19 -5 -26 -12 -13 -13 -42 5 -42 27 0 22 29 40
42 27 7 -7 18 -12 26 -12 12 0 12 3 2 15 -15 18 -61 20 -78 3z"/>
<path d="M1672 1685 c-18 -37 -19 -45 -7 -45 8 0 15 5 15 10 0 6 11 10 25 10
14 0 25 -4 25 -10 0 -5 7 -10 15 -10 12 0 11 8 -7 45 -12 25 -27 45 -33 45 -6
0 -21 -20 -33 -45z m42 0 c4 -10 -1 -15 -15 -15 -17 0 -18 2 -7 15 16 18 15
18 22 0z"/>
<path d="M1770 1685 c0 -33 4 -45 15 -45 8 0 15 9 15 20 0 11 4 20 10 20 5 0
14 -9 20 -20 6 -11 18 -20 27 -20 15 0 15 2 0 18 -12 14 -14 21 -6 29 22 22 2
43 -41 43 l-40 0 0 -45z m63 20 c1 -5 -6 -11 -15 -13 -11 -2 -18 3 -18 13 0
17 30 18 33 0z"/>
<path d="M1980 1689 c0 -40 0 -41 -32 -34 -25 5 -29 4 -18 -4 20 -14 53 -14
68 1 18 18 16 78 -3 78 -11 0 -15 -11 -15 -41z"/>
<path d="M2042 1685 c-18 -37 -19 -45 -7 -45 8 0 15 5 15 10 0 6 11 10 25 10
14 0 25 -4 25 -10 0 -5 7 -10 15 -10 12 0 11 8 -7 45 -12 25 -27 45 -33 45 -6
0 -21 -20 -33 -45z m42 0 c3 -9 0 -15 -9 -15 -9 0 -12 6 -9 15 4 8 7 15 9 15
2 0 5 -7 9 -15z"/>
<path d="M2140 1685 c0 -33 4 -45 15 -45 8 0 15 9 15 20 0 11 3 20 8 20 4 0
13 -9 20 -20 13 -21 72 -29 72 -10 0 6 11 10 25 10 14 0 25 -4 25 -10 0 -5 7
-10 15 -10 12 0 11 8 -7 45 -25 51 -50 62 -48 20 1 -3 -6 -12 -14 -20 -8 -8
-16 -20 -19 -27 -3 -9 -12 -6 -28 10 l-24 23 24 20 c20 16 20 19 5 19 -9 0
-26 -7 -36 -17 -17 -15 -18 -15 -18 0 0 10 -7 17 -15 17 -11 0 -15 -12 -15
-45z m164 0 c3 -9 0 -15 -9 -15 -9 0 -12 6 -9 15 4 8 7 15 9 15 2 0 5 -7 9
-15z"/>
<path d="M2360 1685 c0 -33 4 -45 15 -45 8 0 15 9 15 20 0 11 4 20 10 20 5 0
14 -9 20 -20 6 -11 18 -20 27 -20 15 0 15 2 0 18 -12 14 -14 21 -6 29 22 22 2
43 -41 43 l-40 0 0 -45z m63 20 c1 -5 -6 -11 -15 -13 -11 -2 -18 3 -18 13 0
17 30 18 33 0z"/>
<path d="M2478 1723 c18 -4 22 -11 22 -44 0 -28 4 -39 15 -39 11 0 15 11 15
39 0 29 5 41 18 44 9 3 -8 5 -38 4 -30 0 -45 -2 -32 -4z"/>
<path d="M2582 1685 c-19 -39 -20 -45 -6 -45 9 0 14 6 11 13 -4 10 3 12 24 9
16 -2 29 -8 29 -13 0 -5 7 -9 15 -9 12 0 11 8 -7 45 -12 25 -27 45 -33 45 -6
0 -21 -20 -33 -45z m42 0 c3 -9 0 -15 -9 -15 -9 0 -12 6 -9 15 4 8 7 15 9 15
2 0 5 -7 9 -15z"/>
<path d="M2753 1683 c37 -2 97 -2 135 0 37 2 6 3 -68 3 -74 0 -105 -1 -67 -3z"/>
<path d="M678 1673 c34 -2 90 -2 125 0 34 2 6 3 -63 3 -69 0 -97 -1 -62 -3z"/>
</g>
</svg>
